# xmcd
#
# Track frame offsets:
#	150
#	3434
#	24827
#	40652
#	64907
#	83765
#	99792
#	119855
#	139009
#	146429
#	165763
#	184582
#	204229
#	216004
#	238525
#
# Disc length: 3380 seconds
#
# Revision: 1
# Processed by: cddbd v1.5.2PL0 Copyright (c) Steve Scherf et al.
# Submitted via: audiograbber 1.83.01
#
DISCID=b70d320f
DTITLE=angie stone - black diamond
DYEAR=1900
DGENRE=R&B
TTITLE0=freedom
TTITLE1=no more rain ( in this cloud )
TTITLE2=green grass vapors
TTITLE3=everyday
TTITLE4=coulda been you
TTITLE5=vivions
TTITLE6=life story
TTITLE7=just a pimp
TTITLE8=trouble man
TTITLE9=bone 2 pic ( wit u )
TTITLE10=man loves his money
TTITLE11=love junkie
TTITLE12=black diamonds and blue pearls
TTITLE13=heaven help
TTITLE14=xxx
EXTD=
EXTT0=
EXTT1=
EXTT2=
EXTT3=
EXTT4=
EXTT5=
EXTT6=
EXTT7=
EXTT8=
EXTT9=
EXTT10=
EXTT11=
EXTT12=
EXTT13=
EXTT14=
PLAYORDER=
